{"title":"How High 2001 DVDRip [H.264-MP4-AAC] ~ Mindbreaker","uid":5157813,"size":1454323181,"categoryP":"video","categoryS":"movies","magnet":"?xt=urn:btih:54f99e240767b5c410b21a0b0f9831b064ac9c65&amp;dn=How+High+2001+DVDRip+%5BH.264-MP4-AAC%5D+%7E+Mindbreaker&amp;tr=udp%3A%2F%2Ftracker.openbittorrent.com%3A80&amp;tr=udp%3A%2F%2Fopen.demonii.com%3A1337&amp;tr=udp%3A%2F%2Ftracker.coppersurfer.tk%3A6969&amp;tr=udp%3A%2F%2Fexodus.desync.com%3A6969","seeders":2,"leechers":1,"uploader":"mind3103","files":-1,"time":1257959019,"description":"\nimdb : http://www.imdb.com/title/tt0278488/\nTagline: You got blunt... You got weed.....\nPlot: Two guys by the name of Silas and Jamal decided to one day smoke something magical, which eventually helps them to ace their college entrance exam.\nTotal Size : 1.35 GB\n\nGeneral\nComplete name : How High 2001 DVDRip [H.264-MP4-AAC] ~ Mindbreaker.mp4\nFormat : H.264/AAC/MP4 - Anamophic\nSource : DVD (retail)\nFile size : 1.35 GiB\nDuration : 1h 29mn\nOverall bit rate : 2 163 Kbps\n\n\nVideo\nID : 1\nFormat : AVC\nFormat/Info : Advanced Video Codec\nFormat profile : &lt;a class=&quot;__cf_email__&quot; href=&quot;/cdn-cgi/l/email-protection&quot; data-cfemail=&quot;d991b0beb19995eaf7e9&quot;&gt;[email&amp;#160;protected]&lt;/a&gt;&lt;script cf-hash='f9e31' type=&quot;text/javascript&quot;&gt;\n/* &lt;![CDATA[ */!function(){try{var t=&quot;currentScript&quot;in document?document.currentScript:function(){for(var t=document.getElementsByTagName(&quot;script&quot;),e=t.length;e--;)if(t[e].getAttribute(&quot;cf-hash&quot;))return t[e]}();if(t&amp;&amp;t.previousSibling){var e,r,n,i,c=t.previousSibling,a=c.getAttribute(&quot;data-cfemail&quot;);if(a){for(e=&quot;&quot;,r=parseInt(a.substr(0,2),16),n=2;a.length-n;n+=2)i=parseInt(a.substr(n,2),16)^r,e+=String.fromCharCode(i);e=document.createTextNode(e),c.parentNode.replaceChild(e,c)}}}catch(u){}}();/* ]]&gt; */&lt;/script&gt;\nDuration : 1h 29mn\nBit rate : 2000 Kbps\nWidth : 720 pixels\nHeight : 552 pixels\nDisplay aspect ratio : 1.855\nFrame rate : 25.000 fps\nBits/(Pixel*Frame) : 0.201\nStream size : 1.25 GiB (92%)\nWriting library : x264 core 65\n\nAudio\nID : 2\nFormat : AAC\nFormat/Info : Advanced Audio Codec\nFormat profile : LC\nDuration : 1h 29mn\nBit rate : 160 Kbps\nChannel(s) : 2 channels\nSampling rate : 48.0 KHz\nStream size : 103 MiB (7%)\nLanguage : English\n\nSubtitle\nFormat : SubRip\nLanguage : Dutch &amp; English\nSource : DVD (retail) &lt;a href=&quot;\nhttp://genesis.1337x.org:1337/announce&quot; rel=&quot;nofollow&quot; target=&quot;_NEW&quot;&gt;\nhttp://genesis.1337x.org:1337/announce&lt;/a&gt;","torrent":{"xt":"urn:btih:54f99e240767b5c410b21a0b0f9831b064ac9c65","amp;dn":"How+High+2001+DVDRip+%5BH.264-MP4-AAC%5D+%7E+Mindbreaker","amp;tr":["udp%3A%2F%2Ftracker.openbittorrent.com%3A80","udp%3A%2F%2Fopen.demonii.com%3A1337","udp%3A%2F%2Ftracker.coppersurfer.tk%3A6969","udp%3A%2F%2Fexodus.desync.com%3A6969"],"infoHash":"54f99e240767b5c410b21a0b0f9831b064ac9c65","infoHashBuffer":{"type":"Buffer","data":[84,249,158,36,7,103,181,196,16,178,26,11,15,152,49,176,100,172,156,101]},"announce":[],"urlList":[]}}